<svg width="24" height="24" viewBox="0 0 24 24" fill="none" xmlns="http://www.w3.org/2000/svg">
<path d="M13.0061 4.7561C13.0061 4.20045 12.5557 3.75 12 3.75C11.4443 3.75 10.9939 4.20045 10.9939 4.7561V10.3902H8.78051C8.45497 10.3902 8.16148 10.5863 8.0369 10.8871C7.91232 11.1879 7.98118 11.5341 8.21138 11.7643L11.4309 14.9838C11.7452 15.2981 12.2548 15.2981 12.5692 14.9838L15.7887 11.7643C16.0189 11.5341 16.0877 11.1879 15.9631 10.8871C15.8386 10.5863 15.5451 10.3902 15.2195 10.3902H13.0061V4.7561Z" fill="#1464F4"/>
<path d="M5.7622 14.4146C5.7622 13.859 5.31175 13.4085 4.7561 13.4085C4.20045 13.4085 3.75 13.859 3.75 14.4146V17.6341C3.75 18.3279 4.0256 18.9933 4.51617 19.4838C5.00673 19.9744 5.67209 20.25 6.36585 20.25H17.6341C18.3279 20.25 18.9933 19.9744 19.4838 19.4838C19.9744 18.9933 20.25 18.3279 20.25 17.6341V14.4146C20.25 13.859 19.7996 13.4085 19.2439 13.4085C18.6883 13.4085 18.2378 13.859 18.2378 14.4146V17.6341C18.2378 17.7942 18.1742 17.9478 18.061 18.061C17.9478 18.1742 17.7942 18.2378 17.6341 18.2378H6.36585C6.20575 18.2378 6.05221 18.1742 5.939 18.061C5.82579 17.9478 5.7622 17.7942 5.7622 17.6341V14.4146Z" fill="#1464F4"/>
</svg>
