<svg width="24" height="24" viewBox="0 0 24 24" fill="none" xmlns="http://www.w3.org/2000/svg">
<path d="M15.2192 7.97559L11.9997 4.75607L8.78021 7.97559" fill="#1464F4"/>
<path d="M5.7622 14.4146C5.7622 13.859 5.31175 13.4085 4.7561 13.4085C4.20045 13.4085 3.75 13.859 3.75 14.4146L3.75 17.6341C3.75 18.3279 4.0256 18.9933 4.51617 19.4838C5.00673 19.9744 5.67209 20.25 6.36585 20.25H17.6341C18.3279 20.25 18.9933 19.9744 19.4838 19.4838C19.9744 18.9933 20.25 18.3279 20.25 17.6341V14.4146C20.25 13.859 19.7996 13.4085 19.2439 13.4085C18.6883 13.4085 18.2378 13.859 18.2378 14.4146V17.6341C18.2378 17.7942 18.1742 17.9478 18.061 18.061C17.9478 18.1742 17.7942 18.2378 17.6341 18.2378H6.36585C6.20575 18.2378 6.05221 18.1742 5.939 18.061C5.82579 17.9478 5.7622 17.7942 5.7622 17.6341L5.7622 14.4146Z" fill="#1464F4"/>
<path d="M12 15.4207C11.4443 15.4207 10.9939 14.9703 10.9939 14.4146L10.9939 8.98171L8.78046 8.98171C8.37353 8.98171 8.00667 8.73658 7.85095 8.36063C7.69522 7.98467 7.7813 7.55193 8.06904 7.26419L11.2886 4.04468C11.6815 3.65177 12.3185 3.65177 12.7114 4.04468L15.9309 7.26419C16.2186 7.55193 16.3047 7.98467 16.149 8.36063C15.9933 8.73658 15.6264 8.98171 15.2195 8.98171L13.0061 8.98171L13.0061 14.4146C13.0061 14.9703 12.5557 15.4207 12 15.4207Z" fill="#1464F4"/>
</svg>
